# xmcd
#
# Track frame offsets:
#	150
#	42897
#	70232
#	92615
#	129116
#	154320
#	172671
#	201502
#
# Disc length: 2983
#
# Revision: 1
# Processed by: cddbd v1.5.1PL0 Copyright (c) Steve Scherf et al.
# Submitted via: CDex 1.50
# Normalized: r0:DSETVAR1,TDELIM( - )
#
DISCID=610ba508
DTITLE=Various Artist - Jazz For A Mellow Morning Disc 2
DYEAR=2003
DGENRE=Jazz
TTITLE0=The Enchanted Flower - Buster Williams
TTITLE1=My Man's Gone Now - Mulgrew Miller
TTITLE2=Detour Ahead - Junior Cook
TTITLE3=Here's That Rainy Day - Kenny Barron
TTITLE4=Good Morning Heartache - Houston Person and Ron Carter
TTITLE5=Love Letters - Bobby Hutcherson
TTITLE6=So Little Time - Kenny Burrell
TTITLE7=Bliss - Pete (LaRoca) Sims
EXTD=YEAR: 2003
EXTT0=
EXTT1=
EXTT2=
EXTT3=
EXTT4=
EXTT5=
EXTT6=
EXTT7=
PLAYORDER=
